# xmcd CD database file
#
# Track frame offsets:
#	150
#	17747
#	33217
#	52665
#	76437
#	97840
#	118052
#	138970
#	159452
#	177850
#	203980
#	221092
#
# Disc length: 3135 seconds
#
# Revision: 0
# Processed by: cddbd v1.5.1PL0 Copyright (c) Steve Scherf et al.
# Submitted via: CDex 1.51
#
DISCID=950c3d0c
DTITLE=Sapatos - ふたりの、サウダージ
DYEAR=2003
DGENRE=Easy Listening
TTITLE0=Ｎuovo Cinema Paradiso
TTITLE1=Take Five
TTITLE2=New York City Serenade
TTITLE3=Smile - She
TTITLE4=O Quand El Sai
TTITLE5=Ave Maria
TTITLE6=Holiday
TTITLE7=Over the Rainbow
TTITLE8=Just the Way You Are
TTITLE9=Moonlight Serenade
TTITLE10=Resposta
TTITLE11=Aqua de Beber
EXTD=YEAR: 2003
EXTT0=
EXTT1=
EXTT2=
EXTT3=
EXTT4=
EXTT5=
EXTT6=
EXTT7=
EXTT8=
EXTT9=
EXTT10=
EXTT11=
PLAYORDER=
